<?xml version="1.0" encoding="utf-8"?>
<!-- Generator: Adobe Illustrator 24.0.1, SVG Export Plug-In . SVG Version: 6.00 Build 0)  -->
<svg version="1.1" id="Calque_1" xmlns="http://www.w3.org/2000/svg" xmlns:xlink="http://www.w3.org/1999/xlink" x="0px" y="0px"
	 viewBox="0 0 16 16" style="enable-background:new 0 0 16 16;" xml:space="preserve">
<style type="text/css">
	.st0{fill:#0B1401;}
</style>
<g>
	<path class="st0" d="M8.7,8.3c0.2,0.1,0.4,0.1,0.6,0.1c0.1,0,0.2,0,0.3-0.1c0-0.1,0-0.1-0.1-0.1L8.5,5.3V5.2
		c-0.1,0-0.3-0.1-0.4-0.1c-0.2,0-0.4,0-0.5,0.1L8.7,8.3C8.7,8.3,8.7,8.3,8.7,8.3z"/>
	<path class="st0" d="M8.4,8.1l-1-2.7C7,5.7,7,6.1,7.3,6.7C7.4,7.3,7.8,7.8,8.4,8.1z"/>
	<path class="st0" d="M15.7,13.6L10.8,1c-0.1-0.1-0.2-0.3-0.4-0.3L1.6,0C1,0.7,0.6,1.4,0.5,2.2L4.8,16l9.5-0.1
		c0.1,0,0.1-0.1,0.1-0.1l0,0v-0.2c0-0.1-0.1-0.1-0.1-0.1h-0.4l1.3-1.6h0.5C15.7,13.9,15.7,13.8,15.7,13.6
		C15.7,13.7,15.7,13.6,15.7,13.6z M2.8,0.8l7.3,0.7l4.4,11.4l-7.7-0.1L2.8,0.8z M13.4,15.6l-8.5,0c0.3-0.8,0.8-1.6,1.3-1.8l8.4,0.1
		L13.4,15.6z"/>
	<path class="st0" d="M13.8,12.3L9.7,2L3.5,1.4l3.7,10.9L13.8,12.3z M7.2,5.2C7,4.7,6.9,4.6,6.6,4.6L6.5,4.4h0.9l0.1,0.2
		C7.3,4.6,7.3,4.7,7.4,5.1c0.2-0.1,0.4-0.1,0.7-0.1c0.1,0,0.1,0,0.3,0C8.2,4.7,8.2,4.7,7.9,4.6L7.8,4.4h0.9l0.1,0.2
		C8.6,4.7,8.6,4.7,8.7,5.1c0.3,0.1,0.4,0.1,0.6,0.1C9.4,5.5,9.5,5.8,9.6,6L9.5,6C9.3,5.7,9.1,5.4,8.8,5.3l1.1,2.9
		c0.1-0.1,0.3-0.3,0.3-0.7l0.2,0.1c0,0.3,0,0.5,0,0.8c-0.1,0-0.2,0.1-0.4,0.1c0.1,0.4,0.2,0.4,0.4,0.4l0.1,0.2H9.7L9.6,8.9
		c0.2-0.1,0.3-0.1,0.1-0.4c-0.1,0-0.2,0-0.4,0c-0.2,0-0.4,0-0.6-0.1c0.1,0.4,0.2,0.4,0.4,0.4l0.1,0.2H8.3L8.3,8.9
		c0.2-0.1,0.3-0.1,0.1-0.6C7.5,8.1,6.8,7.5,6.6,6.8C6.3,6.1,6.6,5.4,7.2,5.2L7.2,5.2z"/>
</g>
</svg>
